# Blender 4.3.2
# www.blender.org
mtllib dumpster.mtl
o Body
v 1.125000 2.982294 -1.875000
v 1.125000 0.350000 -1.875000
v 1.125000 2.953953 1.875000
v 1.125000 0.350000 1.875000
v -1.125000 2.398685 -1.875000
v -1.125000 0.350000 -1.875000
v -1.125000 2.395747 1.875000
v -1.125000 0.350000 1.875000
v 1.065257 2.998702 -1.789489
v 1.079534 0.400518 -1.799223
v 1.065257 2.960581 1.789489
v 1.079534 0.400518 1.799223
v -1.073100 2.401892 -1.776286
v -1.079534 0.400518 -1.799223
v -1.073100 2.396703 1.776286
v -1.079534 0.400518 1.799223
v -1.088649 1.263787 1.826491
v -1.088649 1.461008 1.826491
v -1.088649 1.461008 -1.826491
v -1.088649 1.263787 -1.826491
v -1.125000 1.215278 1.875000
v -1.125000 1.509518 1.875000
v -1.125000 1.509517 -1.875000
v -1.125000 1.215278 -1.875000
v -1.067120 2.213217 -1.799223
v -1.067120 2.208021 1.799223
v 1.067120 2.614861 -1.799223
v 1.067120 2.572993 1.799223
v -1.067120 2.248244 0.000000
v 0.000000 2.420581 -1.799223
v 0.000000 2.428309 1.799223
v 1.061802 2.527282 0.004750
v -0.009874 2.392278 0.008819
v -1.067120 2.283100 0.899611
v -0.533560 2.304922 -1.799223
v 0.533560 2.531339 1.799223
v 1.067120 2.677462 -0.899611
v -1.067120 2.219557 -0.899611
v 0.533560 2.553099 -1.799223
v -0.533560 2.293424 1.799223
v 1.064652 2.603778 0.901816
v 0.521521 2.442412 0.010752
v -0.534698 2.353037 0.001016
v -0.000125 2.469757 -0.899500
v -0.005571 2.527017 0.904587
v -0.533685 2.412901 0.899723
v -0.533560 2.316750 -0.899611
v 0.533314 2.628519 -0.899391
v 0.526743 2.580776 0.905700
v -1.067120 2.248229 1.349417
v -0.800340 2.260999 -1.799223
v 0.800340 2.561561 1.799223
v 1.067120 2.677462 -1.349417
v -1.067120 2.213947 -0.449806
v 0.266780 2.497993 -1.799223
v -0.266780 2.354033 1.799223
v 1.061771 2.563647 0.454583
v 0.790459 2.484141 0.008826
v -0.272075 2.379730 0.004729
v 0.000000 2.469971 -1.349417
v -0.009741 2.478960 0.458506
v -1.067120 2.283174 0.449806
v -0.266780 2.348442 -1.799223
v 0.266780 2.487894 1.799223
v 1.064736 2.610779 -0.447676
v -1.067120 2.219557 -1.349417
v 0.800340 2.593630 -1.799223
v -0.800340 2.250436 1.799223
v 1.067120 2.608173 1.349417
v 0.254741 2.408848 0.010752
v -0.800340 2.308424 0.000000
v -0.005604 2.411489 -0.444800
v -0.000127 2.505116 1.349531
v -0.269189 2.476477 0.901763
v -0.800340 2.353549 0.899611
v -0.534532 2.402788 0.450674
v -0.533560 2.363849 1.349417
v -0.266780 2.374174 -0.899611
v -0.800340 2.270953 -0.899611
v -0.533560 2.316750 -1.349417
v -0.533755 2.307712 -0.449632
v 0.800286 2.667928 -0.899563
v 0.266518 2.565477 -0.899377
v 0.533560 2.628941 -1.349417
v 0.526801 2.541531 -0.443769
v 0.794956 2.601984 0.904420
v 0.259932 2.554671 0.905728
v 0.521521 2.515646 0.460558
v 0.533240 2.587954 1.349703
v 0.266454 2.550529 1.349708
v 0.254741 2.495157 0.460558
v 0.790459 2.544775 0.458631
v 0.259993 2.486376 -0.443744
v 0.266780 2.565926 -1.349417
v 0.800340 2.668021 -1.349417
v -0.800340 2.263337 -0.449806
v -0.800340 2.270953 -1.349417
v -0.266780 2.374174 -1.349417
v -0.800340 2.308141 1.349417
v -0.800340 2.353606 0.449806
v -0.271781 2.445680 0.454272
v -0.266780 2.437359 1.349417
v -0.269365 2.345981 -0.447497
v 0.795029 2.584539 -0.445062
v 0.800236 2.611126 1.349510
vn -0.0000 -0.0000 1.0000
vn -1.0000 -0.0000 -0.0000
vn -0.0000 -1.0000 -0.0000
vn -0.0000 -0.0000 -1.0000
vn 0.0040 -0.0072 -1.0000
vn 1.0000 -0.0032 -0.0000
vn -1.0000 0.0067 -0.0000
vn -1.0000 -0.0055 -0.0000
vn 0.0041 -0.0071 1.0000
vn -0.2476 0.9676 0.0504
vn 0.1893 0.9819 0.0089
vn -0.0401 0.9992 0.0011
vn -0.2584 0.9594 -0.1131
vn 1.0000 -0.0000 -0.0000
vn -0.8002 -0.0000 -0.5997
vn -0.8002 -0.0000 0.5997
vn -0.8002 0.5997 -0.0000
vn -0.8002 -0.5997 -0.0000
vn -0.0158 0.9955 0.0938
vn 1.0000 0.0065 -0.0000
vn -0.1223 0.9729 0.1964
vn -0.1466 0.9891 -0.0170
vn -0.2536 0.9523 0.1696
vn -0.1558 0.9841 -0.0857
vn -0.1997 0.9798 -0.0108
vn -0.1801 0.9738 0.1387
vn -0.3377 0.9413 0.0002
vn -0.1692 0.9856 -0.0000
vn -0.1639 0.9815 -0.0987
vn -0.0355 0.9994 0.0001
vn -0.2299 0.9732 0.0008
vn -0.1611 0.9692 0.1865
vn -0.0393 0.9934 -0.1080
vn -0.0862 0.9868 -0.1371
vn -0.1486 0.9803 0.1301
vn -0.1182 0.9930 -0.0017
vn -0.1361 0.9902 0.0308
vn -0.1910 0.9700 0.1505
vn -0.0993 0.9798 -0.1738
vn -0.0593 0.9803 -0.1885
vn -0.0812 0.9896 -0.1186
vn -0.1145 0.9877 -0.1065
vn -0.1302 0.9807 -0.1459
vn -0.0933 0.9865 -0.1344
vn -0.2130 0.9617 0.1722
vn -0.3026 0.9430 0.1383
vn -0.1696 0.9801 0.1026
vn -0.2136 0.9647 -0.1542
vn -0.3067 0.9438 -0.1231
vn -0.3382 0.9411 0.0005
vn -0.0567 0.9870 -0.1503
vn -0.1456 0.9758 -0.1630
vn -0.1455 0.9894 0.0005
vn -0.1667 0.9858 0.0182
vn -0.1856 0.9825 0.0144
vn -0.2004 0.9759 -0.0861
vn -0.1658 0.9859 -0.0239
vn -0.1827 0.9830 -0.0178
vn -0.1892 0.9819 -0.0000
vn -0.2993 0.9509 -0.0794
vn -0.1857 0.9817 -0.0410
vn -0.2104 0.9776 -0.0000
vn -0.2098 0.9724 0.1021
vn -0.2365 0.9678 0.0864
vn -0.1873 0.9765 0.1063
vn -0.1725 0.9796 -0.1034
vn -0.2369 0.9677 -0.0862
vn -0.2553 0.9669 0.0001
vn -0.0832 0.9825 -0.1667
vn -0.1285 0.9836 -0.1265
vn -0.1973 0.9794 -0.0439
vn -0.2176 0.9736 0.0685
vn -0.2491 0.9638 0.0954
vn -0.2405 0.9568 0.1635
vn -0.2899 0.9530 0.0883
vn -0.1773 0.9833 0.0400
vn -0.1209 0.9888 -0.0871
vn -0.0648 0.9846 0.1625
vn -0.1492 0.9723 0.1801
vn -0.1511 0.9658 0.2105
vn 0.0021 0.9999 -0.0152
vn -0.0827 0.9964 -0.0172
vn -0.0988 0.9882 0.1167
vt 0.559952 0.006906
vt 0.837868 0.009597
vt 0.810824 0.270784
vt 0.711669 0.269059
vt 0.674999 0.268420
vt 0.555871 0.266347
vt 0.438132 0.397065
vt 0.437647 0.289146
vt 0.957355 0.286908
vt 0.957840 0.394828
vt 0.444304 0.006678
vt 0.947657 0.008491
vt 0.947657 0.277814
vt 0.444304 0.276001
vt 0.587888 0.149840
vt 0.589990 0.116928
vt 0.595672 0.027935
vt 0.823304 0.016369
vt 0.832730 0.272827
vt 0.581062 0.256758
vt 0.909959 0.236349
vt 0.441402 0.264517
vt 0.439570 0.006949
vt 0.952147 0.006112
vt 0.441164 0.003226
vt 0.957018 0.003692
vt 0.957135 0.261848
vt 0.441329 0.261943
vt 0.505645 0.003285
vt 0.570127 0.003343
vt 0.634609 0.003401
vt 0.699091 0.003459
vt 0.763572 0.003517
vt 0.828054 0.003575
vt 0.892536 0.003634
vt 0.958248 0.259859
vt 0.440299 0.262156
vt 0.441083 0.003624
vt 0.960920 0.003759
vt 0.440308 0.263991
vt 0.440363 0.004922
vt 0.952418 0.005973
vt 0.848038 0.261256
vt 0.439131 0.199375
vt 0.438973 0.197853
vt 0.629881 0.262948
vt 0.439084 0.262027
vt 0.439279 0.263386
vt 0.638019 0.190841
vt 0.629670 0.263315
vt 0.437883 0.262417
vt 0.437243 0.225323
vt 0.634968 0.225555
vt 0.961208 0.003339
vt 0.959205 0.286681
vt 0.420154 0.284507
vt 0.422157 0.001165
vt 0.438894 0.566635
vt 0.438311 0.436977
vt 0.958019 0.434739
vt 0.958602 0.564397
vt 0.445004 0.430368
vt 0.444884 0.403616
vt 0.951147 0.401437
vt 0.951267 0.428188
vt 0.129867 0.132670
vt 0.006112 0.133121
vt 0.006455 0.010249
vt 0.130174 0.009664
vt 0.893504 0.260146
vt 0.828761 0.260434
vt 0.764017 0.260721
vt 0.699273 0.261008
vt 0.634530 0.261295
vt 0.569786 0.261582
vt 0.505042 0.261869
vt 0.440315 0.231607
vt 0.440322 0.199223
vt 0.440329 0.166840
vt 0.440336 0.134456
vt 0.440342 0.102072
vt 0.440349 0.069689
vt 0.440356 0.037305
vt 0.851390 0.239870
vt 0.792820 0.243391
vt 0.734250 0.246912
vt 0.675680 0.250433
vt 0.617111 0.253954
vt 0.558541 0.257475
vt 0.499971 0.260996
vt 0.624884 0.130866
vt 0.501130 0.131317
vt 0.501331 0.007911
vt 0.625050 0.007326
vt 0.624220 0.625027
vt 0.500325 0.624943
vt 0.500526 0.501537
vt 0.624386 0.501487
vt 0.128639 0.624693
vt 0.004744 0.624610
vt 0.005086 0.501737
vt 0.128946 0.501687
vt 0.376429 0.624860
vt 0.252534 0.624776
vt 0.252806 0.501637
vt 0.376666 0.501587
vt 0.375957 0.871406
vt 0.251991 0.871055
vt 0.252263 0.747916
vt 0.376193 0.748133
vt 0.128025 0.870705
vt 0.004059 0.870354
vt 0.004402 0.747482
vt 0.128332 0.747699
vt 0.872011 0.625194
vt 0.748115 0.625110
vt 0.748246 0.501437
vt 0.872106 0.501386
vt 0.871819 0.872809
vt 0.747854 0.872458
vt 0.747984 0.748784
vt 0.871915 0.749001
vt 0.623888 0.872107
vt 0.499922 0.871757
vt 0.500124 0.748350
vt 0.624054 0.748567
vt 0.872393 0.129964
vt 0.748638 0.130415
vt 0.748769 0.006741
vt 0.872488 0.006157
vt 0.872202 0.377579
vt 0.748377 0.377763
vt 0.748508 0.254089
vt 0.872297 0.253772
vt 0.624552 0.377946
vt 0.500727 0.378130
vt 0.500928 0.254724
vt 0.624718 0.254406
vt 0.377375 0.131768
vt 0.253621 0.132219
vt 0.253893 0.009080
vt 0.377612 0.008495
vt 0.376902 0.378314
vt 0.253078 0.378498
vt 0.253349 0.255358
vt 0.377139 0.255041
vt 0.129253 0.378682
vt 0.005428 0.378865
vt 0.005770 0.255993
vt 0.129560 0.255676
vt 0.996026 0.377395
vt 0.996087 0.253454
vt 0.995966 0.501336
vt 0.996147 0.129513
vt 0.996207 0.005572
vt 0.747723 0.996132
vt 0.623722 0.995647
vt 0.499721 0.995163
vt 0.995785 0.873159
vt 0.995845 0.749218
vt 0.995725 0.997100
vt 0.871724 0.996616
vt 0.995906 0.625277
vt 0.251719 0.994195
vt 0.127718 0.993710
vt 0.003717 0.993226
vt 0.375720 0.994679
s 0
usemtl Dumpster
f 4/1/1 3/2/1 7/3/1 22/4/1 21/5/1 8/6/1
f 22/7/2 7/8/2 5/9/2 23/10/2
f 6/11/3 2/12/3 4/13/3 8/14/3
f 24/15/4 23/16/4 5/17/4 1/18/4 2/19/4 6/20/4
f 12/21/5 16/22/5 15/23/5 11/24/5
f 16/25/6 14/26/6 13/27/6 15/28/6
f 14/26/7 16/25/7 26/25/7 50/29/7 34/30/7 62/31/7 29/32/7 54/33/7 38/34/7 66/35/7 25/26/7
f 10/36/8 12/37/8 11/38/8 9/39/8
f 14/40/9 10/41/9 9/42/9 13/43/9
f 7/44/10 3/45/10 11/46/10 15/47/10
f 3/45/11 1/48/11 9/49/11 11/46/11
f 5/50/12 7/51/12 15/52/12 13/53/12
f 1/48/13 5/50/13 13/53/13 9/49/13
f 2/54/14 1/55/14 3/56/14 4/57/14
f 8/58/2 21/59/2 24/60/2 6/61/2
f 17/62/2 18/63/2 19/64/2 20/65/2
f 18/63/15 17/62/15 21/59/15 22/7/15
f 20/65/16 19/64/16 23/10/16 24/60/16
f 17/62/17 20/65/17 24/60/17 21/59/17
f 19/64/18 18/63/18 22/7/18 23/10/18
f 12/37/20 10/36/20 27/36/20 53/70/20 37/71/20 65/72/20 32/73/20 57/74/20 41/75/20 69/76/20 28/37/20
f 10/41/4 14/40/4 25/40/4 51/77/4 35/78/4 63/79/4 30/80/4 55/81/4 39/82/4 67/83/4 27/41/4
f 16/22/1 12/21/1 28/21/1 52/84/1 36/85/1 64/86/1 31/87/1 56/88/1 40/89/1 68/90/1 26/22/1
usemtl Garbage
f 105/66/19 52/67/19 28/68/19 69/69/19
f 104/91/21 58/92/21 32/93/21 65/94/21
f 103/95/22 59/96/22 33/97/22 72/98/22
f 102/99/23 56/100/23 31/101/23 73/102/23
f 101/103/24 74/104/24 45/105/24 61/106/24
f 100/107/25 75/108/25 46/109/25 76/110/25
f 99/111/26 68/112/26 40/113/26 77/114/26
f 98/115/27 78/116/27 44/117/27 60/118/27
f 97/119/28 79/120/28 47/121/28 80/122/28
f 96/123/29 71/124/29 43/125/29 81/126/29
f 95/127/30 82/128/30 37/129/30 53/130/30
f 94/131/31 83/132/31 48/133/31 84/134/31
f 93/135/32 70/136/32 42/137/32 85/138/32
f 92/139/33 86/140/33 41/141/33 57/142/33
f 91/143/34 87/144/34 49/145/34 88/146/34
f 90/147/35 64/148/35 36/149/35 89/150/35
f 87/144/36 90/147/36 89/150/36 49/145/36
f 45/105/37 73/102/37 90/147/37 87/144/37
f 73/102/38 31/101/38 64/148/38 90/147/38
f 70/136/39 91/143/39 88/146/39 42/137/39
f 33/97/40 61/106/40 91/143/40 70/136/40
f 61/106/41 45/105/41 87/144/41 91/143/41
f 58/92/42 92/139/42 57/142/42 32/93/42
f 42/137/43 88/146/43 92/139/43 58/92/43
f 88/146/44 49/145/44 86/140/44 92/139/44
f 83/132/45 93/135/45 85/138/45 48/133/45
f 44/117/46 72/98/46 93/135/46 83/132/46
f 72/98/47 33/97/47 70/136/47 93/135/47
f 55/151/48 94/131/48 84/134/48 39/152/48
f 30/153/49 60/118/49 94/131/49 55/151/49
f 60/118/50 44/117/50 83/132/50 94/131/50
f 67/154/51 95/127/51 53/130/51 27/155/51
f 39/152/52 84/134/52 95/127/52 67/154/52
f 84/134/53 48/133/53 82/128/53 95/127/53
f 79/120/54 96/123/54 81/126/54 47/121/54
f 38/156/55 54/157/55 96/123/55 79/120/55
f 54/157/56 29/158/56 71/124/56 96/123/56
f 51/159/57 97/119/57 80/122/57 35/160/57
f 25/161/58 66/162/58 97/119/58 51/159/58
f 66/162/59 38/156/59 79/120/59 97/119/59
f 63/163/60 98/115/60 60/118/60 30/153/60
f 35/160/61 80/122/61 98/115/61 63/163/61
f 80/122/62 47/121/62 78/116/62 98/115/62
f 75/108/63 99/111/63 77/114/63 46/109/63
f 34/164/64 50/165/64 99/111/64 75/108/64
f 50/165/65 26/166/65 68/112/65 99/111/65
f 71/124/66 100/107/66 76/110/66 43/125/66
f 29/158/67 62/167/67 100/107/67 71/124/67
f 62/167/68 34/164/68 75/108/68 100/107/68
f 59/96/69 101/103/69 61/106/69 33/97/69
f 43/125/70 76/110/70 101/103/70 59/96/70
f 76/110/71 46/109/71 74/104/71 101/103/71
f 74/104/72 102/99/72 73/102/72 45/105/72
f 46/109/73 77/114/73 102/99/73 74/104/73
f 77/114/74 40/113/74 56/100/74 102/99/74
f 78/116/75 103/95/75 72/98/75 44/117/75
f 47/121/76 81/126/76 103/95/76 78/116/76
f 81/126/77 43/125/77 59/96/77 103/95/77
f 82/128/78 104/91/78 65/94/78 37/129/78
f 48/133/79 85/138/79 104/91/79 82/128/79
f 85/138/80 42/137/80 58/92/80 104/91/80
f 86/140/81 105/66/81 69/69/81 41/141/81
f 49/145/82 89/150/82 105/66/82 86/140/82
f 89/150/83 36/149/83 52/67/83 105/66/83
o Lid
v 1.123953 3.026986 -1.906223
v 1.123953 3.026986 1.906223
v -1.223956 2.463190 -1.906223
v -1.223956 2.463190 1.906223
v 1.140587 2.941461 -1.906223
v 1.140587 2.941461 1.906223
v -1.207321 2.377665 -1.906223
v -1.207321 2.377665 1.906223
vn -0.0000 -0.0000 1.0000
vn -0.0000 -0.0000 -1.0000
vn -0.9816 -0.1909 -0.0000
vn 0.9816 0.1909 -0.0000
vn 0.2335 -0.9724 -0.0000
vn -0.2335 0.9724 -0.0000
vt 0.972008 0.569945
vt 0.995189 0.569764
vt 0.995639 0.786790
vt 0.972011 0.786096
vt 0.719125 0.787790
vt 0.698442 0.788146
vt 0.697787 0.568459
vt 0.715130 0.568439
vt 0.832232 0.768383
vt 0.833421 0.788270
vt 0.759181 0.787420
vt 0.760102 0.768582
vt 0.698445 0.566508
vt 0.998093 0.568306
vt 0.998930 0.588077
vt 0.699065 0.588747
vt 0.992518 0.569413
vt 0.994455 0.786880
vt 0.699973 0.786105
vt 0.698422 0.569025
vt 0.994556 0.574643
vt 0.994556 0.786553
vt 0.699197 0.786553
vt 0.699197 0.574643
s 0
usemtl Dumpster
f 107/168/84 109/169/84 113/170/84 111/171/84
f 108/172/85 106/173/85 110/174/85 112/175/85
f 109/176/86 108/177/86 112/178/86 113/179/86
f 106/180/87 107/181/87 111/182/87 110/183/87
f 110/184/88 111/185/88 113/186/88 112/187/88
f 108/188/89 109/189/89 107/190/89 106/191/89
